<svg xmlns="http://www.w3.org/2000/svg" viewBox="0 0 220 220"><rect width="220" height="220" fill="#0E1726"/><g transform="translate(10,10)"><path d="M 122.23 38.92 L 126.00 40.36 L 129.68 42.02 L 133.25 43.92 L 136.71 46.03 L 140.02 48.36 L 143.19 50.89 L 146.20 53.62 L 149.04 56.53 L 151.69 59.61 L 154.15 62.86 L 156.41 66.25 L 158.45 69.79 L 160.28 73.44 L 161.87 77.21 L 163.23 81.07 L 164.34 85.01 L 165.22 89.02 L 165.84 93.08 L 166.21 97.17 L 166.32 101.29 L 166.18 105.40 L 165.78 109.51 L 165.13 113.58 L 164.23 117.61 L 163.08 121.58 L 161.68 125.48 L 160.04 129.28 L 158.17 132.98 L 156.06 136.56 L 153.74 140.01 L 151.21 143.31 L 148.47 146.45 L 145.54 149.41 L 142.43 152.19 L 139.15 154.78 L 135.72 157.16 L 132.13 159.32 L 128.42 161.26 L 124.59 162.97 L 120.66 164.44 L 116.64 165.66 L 112.55 166.63 L 108.40 167.34 L 104.21 167.80 L 100.00 168.00 L 95.78 167.94 L 91.57 167.61 L 87.38 167.02 L 83.23 166.17 L 79.14 165.07 L 75.12 163.71 L 71.19 162.11 L 67.36 160.26 L 63.65 158.18 L 60.07 155.86 L 56.64 153.33 L 53.37 150.59 L 50.28 147.65 L 47.37 144.51 L 44.65 141.20 L 42.15 137.73 L 39.86 134.10 L 37.80 130.34 L 35.98 126.45 L 34.40 122.45 L 33.07 118.35 L 32.00 114.18 L 31.18 109.94 L 30.63 105.66 L 30.35 101.35 L 30.33 97.03 L 30.58 92.70 L 31.10 88.40 L 31.89 84.14 L 32.94 79.92 L 34.25 75.78 L 35.82 71.72 L 37.64 67.77 L 39.70 63.93 L 42.00 60.22 L 44.52 56.66 L 47.27 53.26 L 50.22 50.03 L 53.37 46.99 L 56.71 44.15 L 60.22 41.51 L 63.89 39.10 L 67.70 36.92 L 71.65 34.98 L 75.72 33.28 A 13.00 13.00 0 0 1 84.61 57.71 L 81.99 58.69 L 79.43 59.83 L 76.95 61.12 L 74.54 62.57 L 72.23 64.17 L 70.02 65.91 L 67.91 67.79 L 65.93 69.80 L 64.07 71.93 L 62.34 74.17 L 60.75 76.52 L 59.31 78.97 L 58.03 81.51 L 56.90 84.12 L 55.93 86.81 L 55.13 89.55 L 54.51 92.34 L 54.05 95.17 L 53.78 98.03 L 53.68 100.90 L 53.75 103.78 L 54.01 106.65 L 54.45 109.50 L 55.06 112.32 L 55.85 115.11 L 56.81 117.84 L 57.94 120.52 L 59.23 123.12 L 60.69 125.64 L 62.30 128.07 L 64.06 130.39 L 65.97 132.61 L 68.01 134.71 L 70.18 136.68 L 72.48 138.51 L 74.88 140.20 L 77.39 141.74 L 80.00 143.12 L 82.68 144.34 L 85.45 145.39 L 88.27 146.27 L 91.15 146.97 L 94.07 147.50 L 97.03 147.84 L 100.00 148.00 L 102.98 147.97 L 105.96 147.76 L 108.92 147.37 L 111.86 146.79 L 114.76 146.03 L 117.61 145.08 L 120.40 143.97 L 123.12 142.67 L 125.75 141.22 L 128.30 139.59 L 130.74 137.81 L 133.07 135.88 L 135.28 133.81 L 137.36 131.60 L 139.30 129.26 L 141.10 126.80 L 142.74 124.24 L 144.22 121.57 L 145.53 118.81 L 146.68 115.97 L 147.64 113.06 L 148.43 110.10 L 149.02 107.08 L 149.44 104.04 L 149.66 100.96 L 149.69 97.88 L 149.53 94.79 L 149.17 91.72 L 148.63 88.67 L 147.90 85.66 L 146.98 82.69 L 145.88 79.79 L 144.60 76.95 L 143.14 74.19 L 141.51 71.53 L 139.72 68.97 L 137.76 66.52 L 135.66 64.20 L 133.42 62.01 L 131.04 59.95 L 128.53 58.05 L 125.91 56.30 L 123.18 54.72 L 120.35 53.31 L 117.44 52.08 A 7.00 7.00 0 0 1 122.23 38.92 Z" fill="#0CA9C4"/><circle cx="100" cy="100" r="20" fill="#0CA9C4"/></g></svg>